<svg id="kity_svg_6" xmlns="http://www.w3.org/2000/svg" xmlns:xlink="http://www.w3.org/1999/xlink" version="1.1" width="999" height="837" style="background: rgb(251, 251, 251); visibility: visible;" viewBox="0 0 999 837"><defs id="kity_defs_7"><linearGradient id="kity_linearGradient_17" x1="0" y1="0" x2="0" y2="1"><stop id="kity_stop_18" offset="0" stop-color="rgb(255, 255, 255)"></stop><stop id="kity_stop_19" offset="1" stop-color="rgb(204, 204, 204)"></stop></linearGradient><marker id="kity_marker_2" orient="auto" refX="6" refY="0" viewBox="-7 -7 14 14" markerWidth="7" markerHeight="7" markerUnits="userSpaceOnUse"><path id="kity_path_3" fill="rgb(115, 161, 191)" stroke="none" d="M6,0A6,6,0,1,1,-6,0A6,6,0,1,1,6,0"></path></marker></defs><g id="kity_g_8"><g id="minder1" text-rendering="optimize-speed"><g id="minder_connect_group1"><path id="kity_path_31" fill="none" stroke="rgb(115, 161, 191)" stroke-width="1" d="M368,462.5A151.5,314,0,0,1,519.5,148.5"></path><path id="kity_path_33" fill="none" stroke="rgb(115, 161, 191)" stroke-width="1" d="M711.5,148.5C726.5,148.5,726.5,45.5,741.5,45.5L827.5,45.5"></path><path id="kity_path_35" fill="none" stroke="rgb(115, 161, 191)" stroke-width="1" d="M827.5,45.5C842.5,45.5,842.5,45.5,857.5,45.5L899.5,45.5"></path><path id="kity_path_37" fill="none" stroke="rgb(115, 161, 191)" stroke-width="1" d="M711.5,148.5C726.5,148.5,726.5,97.5,741.5,97.5L810.5,97.5"></path><path id="kity_path_39" fill="none" stroke="rgb(115, 161, 191)" stroke-width="1" d="M711.5,148.5C726.5,148.5,726.5,149.5,741.5,149.5L796.5,149.5"></path><path id="kity_path_41" fill="none" stroke="rgb(115, 161, 191)" stroke-width="1" d="M711.5,148.5C726.5,148.5,726.5,201.5,741.5,201.5L799.5,201.5"></path><path id="kity_path_43" fill="none" stroke="rgb(115, 161, 191)" stroke-width="1" d="M711.5,148.5C726.5,148.5,726.5,279.5,741.5,279.5L816.5,279.5"></path><path id="kity_path_45" fill="none" stroke="rgb(115, 161, 191)" stroke-width="1" d="M816.5,279.5C831.5,279.5,831.5,253.5,846.5,253.5L891.5,253.5"></path><path id="kity_path_47" fill="none" stroke="rgb(115, 161, 191)" stroke-width="1" d="M816.5,279.5C831.5,279.5,831.5,305.5,846.5,305.5L979.5,305.5"></path><path id="kity_path_49" fill="none" stroke="rgb(115, 161, 191)" stroke-width="1" d="M368,462.5A151.5,57,0,0,1,519.5,405.5"></path><path id="kity_path_51" fill="none" stroke="rgb(115, 161, 191)" stroke-width="1" d="M657.5,405.5C672.5,405.5,672.5,367.5,687.5,367.5L756.5,367.5"></path><path id="kity_path_53" fill="none" stroke="rgb(115, 161, 191)" stroke-width="1" d="M657.5,405.5C672.5,405.5,672.5,419.5,687.5,419.5L782.5,419.5"></path><path id="kity_path_55" fill="none" stroke="rgb(115, 161, 191)" stroke-width="1" d="M657.5,405.5C672.5,405.5,672.5,471.5,687.5,471.5L757.5,471.5"></path><path id="kity_path_57" fill="none" stroke="rgb(115, 161, 191)" stroke-width="1" d="M757.5,471.5C772.5,471.5,772.5,471.5,787.5,471.5L867.5,471.5"></path><path id="kity_path_59" fill="none" stroke="rgb(115, 161, 191)" stroke-width="1" d="M368,462.5A151.5,59,0,0,0,519.5,521.5"></path><path id="kity_path_61" fill="none" stroke="rgb(115, 161, 191)" stroke-width="1" d="M607.5,521.5C622.5,521.5,622.5,535.5,637.5,535.5L702.5,535.5"></path><path id="kity_path_63" fill="none" stroke="rgb(115, 161, 191)" stroke-width="1" d="M368,462.5A151.5,175,0,0,0,519.5,637.5"></path><path id="kity_path_65" fill="none" stroke="rgb(115, 161, 191)" stroke-width="1" d="M610.5,637.5C625.5,637.5,625.5,599.5,640.5,599.5L709.5,599.5"></path><path id="kity_path_67" fill="none" stroke="rgb(115, 161, 191)" stroke-width="1" d="M610.5,637.5C625.5,637.5,625.5,651.5,640.5,651.5L708.5,651.5"></path><path id="kity_path_69" fill="none" stroke="rgb(115, 161, 191)" stroke-width="1" d="M610.5,637.5C625.5,637.5,625.5,703.5,640.5,703.5L704.5,703.5"></path><path id="kity_path_71" fill="none" stroke="rgb(115, 161, 191)" stroke-width="1" d="M368,462.5A151.5,315,0,0,0,519.5,777.5"></path><path id="kity_path_73" fill="none" stroke="rgb(115, 161, 191)" stroke-width="1" d="M582.5,777.5C597.5,777.5,597.5,765.5,612.5,765.5L676.5,765.5"></path><path id="kity_path_75" fill="none" stroke="rgb(115, 161, 191)" stroke-width="1" d="M582.5,777.5C597.5,777.5,597.5,817.5,612.5,817.5L702.5,817.5"></path><path id="kity_path_77" fill="none" stroke="rgb(115, 161, 191)" stroke-width="1" d="M368,462.5A151.5,268,0,0,0,216.5,194.5"></path><path id="kity_path_79" fill="none" stroke="rgb(115, 161, 191)" stroke-width="1" d="M368,462.5A151.5,152,0,0,0,216.5,310.5"></path><path id="kity_path_81" fill="none" stroke="rgb(115, 161, 191)" stroke-width="1" d="M137.5,310.5C122.5,310.5,122.5,272.5,107.5,272.5L46.5,272.5"></path><path id="kity_path_83" fill="none" stroke="rgb(115, 161, 191)" stroke-width="1" d="M137.5,310.5C122.5,310.5,122.5,324.5,107.5,324.5L57.5,324.5"></path><path id="kity_path_85" fill="none" stroke="rgb(115, 161, 191)" stroke-width="1" d="M137.5,310.5C122.5,310.5,122.5,376.5,107.5,376.5L50.5,376.5"></path><path id="kity_path_87" fill="none" stroke="rgb(115, 161, 191)" stroke-width="1" d="M368,462.5A151.5,14,0,0,1,216.5,476.5"></path><path id="kity_path_89" fill="none" stroke="rgb(115, 161, 191)" stroke-width="1" d="M140.5,476.5C125.5,476.5,125.5,438.5,110.5,438.5L66.5,438.5"></path><path id="kity_path_91" fill="none" stroke="rgb(115, 161, 191)" stroke-width="1" d="M140.5,476.5C125.5,476.5,125.5,490.5,110.5,490.5L50.5,490.5"></path><path id="kity_path_93" fill="none" stroke="rgb(115, 161, 191)" stroke-width="1" d="M140.5,476.5C125.5,476.5,125.5,542.5,110.5,542.5L52.5,542.5"></path><path id="kity_path_95" fill="none" stroke="rgb(115, 161, 191)" stroke-width="1" d="M368,462.5A151.5,154,0,0,1,216.5,616.5"></path><path id="kity_path_97" fill="none" stroke="rgb(115, 161, 191)" stroke-width="1" d="M122.5,616.5C107.5,616.5,107.5,604.5,92.5,604.5L25.5,604.5"></path><path id="kity_path_99" fill="none" stroke="rgb(115, 161, 191)" stroke-width="1" d="M122.5,616.5C107.5,616.5,107.5,656.5,92.5,656.5L20.5,656.5"></path><path id="kity_path_101" fill="none" stroke="rgb(115, 161, 191)" stroke-width="1" d="M368,462.5A151.5,268,0,0,1,216.5,730.5"></path><path id="kity_path_103" fill="none" stroke="rgb(115, 161, 191)" stroke-width="1" d="M144.5,730.5C129.5,730.5,129.5,718.5,114.5,718.5L59.5,718.5"></path><path id="kity_path_105" fill="none" stroke="rgb(115, 161, 191)" stroke-width="1" d="M144.5,730.5C129.5,730.5,129.5,770.5,114.5,770.5L21.5,770.5"></path></g><g id="minder_node1"><path id="node_outline1" fill="rgb(115, 161, 191)" stroke="rgb(57, 80, 96)" d="M339.5,442.5h57a5,5,0,0,1,5,5v30a5,5,0,0,1,-5,5h-57a5,5,0,0,1,-5,-5v-30a5,5,0,0,1,5,-5z" stroke-width="3"></path><g id="node_text1" fill="white"><text id="kity_text_22" text-rendering="inherit" font-size="16" dy=".8em" y="454.5" x="358.5">git</text></g></g><g id="kity_g_12"><path id="kity_path_13" fill="none" stroke="none" d="M358.5,462.5h0v0h0z"></path></g><g id="kity_g_14"><path id="kity_path_15" fill="none" stroke="none" d="M358.5,462.5h0v0h0z"></path><path id="kity_path_16" fill="none" stroke="none"></path></g><g id="minder_node2"><g id="node_expander9" style="cursor: pointer;"><path id="kity_path_245" fill="white" stroke="gray" d="M520.5,148.5A6,6,0,1,1,508.5,148.5A6,6,0,1,1,520.5,148.5"></path><path id="kity_path_246" fill="none" stroke="gray" d="M510,148.5L519,148.5"></path></g><path id="node_outline10" fill="rgb(238, 243, 246)" stroke="rgb(115, 161, 191)" d="M524.5,135.5h184a3,3,0,0,1,3,3v20a3,3,0,0,1,-3,3h-184a3,3,0,0,1,-3,-3v-20a3,3,0,0,1,3,-3z" stroke-width="1"></path><g id="node_text10" fill="black"><text id="kity_text_123" text-rendering="inherit" font-size="14" dy=".8em" y="141.5" x="541.5">commit management</text></g></g><g id="minder_node3"><g id="node_expander2" style="cursor: pointer;"><path id="kity_path_224" fill="white" stroke="gray" d="M751.5,31.5A6,6,0,1,1,739.5,31.5A6,6,0,1,1,751.5,31.5"></path><path id="kity_path_225" fill="none" stroke="gray" d="M741,31.5L750,31.5"></path></g><path id="node_outline3" fill="none" stroke="none" d="M756.5,20.5h66a5,5,0,0,1,5,5v12a5,5,0,0,1,-5,5h-66a5,5,0,0,1,-5,-5v-12a5,5,0,0,1,5,-5z"></path><g id="node_text3" fill="black"><text id="kity_text_109" text-rendering="inherit" font-size="12" dy=".8em" y="25.5" x="761.5">checkout</text></g></g><g id="minder_node4"><g id="node_expander1" display="none" style="cursor: pointer;"><path id="kity_path_221" fill="white" stroke="gray" d="M867.5,31.5A6,6,0,1,1,855.5,31.5A6,6,0,1,1,867.5,31.5"></path><path id="kity_path_222" fill="none" stroke="gray"></path></g><path id="node_outline2" fill="none" stroke="none" d="M872.5,20.5h22a5,5,0,0,1,5,5v12a5,5,0,0,1,-5,5h-22a5,5,0,0,1,-5,-5v-12a5,5,0,0,1,5,-5z"></path><g id="node_text2" fill="black"><text id="kity_text_107" text-rendering="inherit" font-size="12" dy=".8em" y="25.5" x="877.5">-b</text></g></g><g id="minder_node5"><g id="node_expander3" display="none" style="cursor: pointer;"><path id="kity_path_227" fill="white" stroke="gray" d="M751.5,83.5A6,6,0,1,1,739.5,83.5A6,6,0,1,1,751.5,83.5"></path><path id="kity_path_228" fill="none" stroke="gray"></path></g><path id="node_outline4" fill="none" stroke="none" d="M756.5,72.5h49a5,5,0,0,1,5,5v12a5,5,0,0,1,-5,5h-49a5,5,0,0,1,-5,-5v-12a5,5,0,0,1,5,-5z"></path><g id="node_text4" fill="black"><text id="kity_text_111" text-rendering="inherit" font-size="12" dy=".8em" y="77.5" x="761.5">restore</text></g></g><g id="minder_node6"><g id="node_expander4" display="none" style="cursor: pointer;"><path id="kity_path_230" fill="white" stroke="gray" d="M751.5,135.5A6,6,0,1,1,739.5,135.5A6,6,0,1,1,751.5,135.5"></path><path id="kity_path_231" fill="none" stroke="gray"></path></g><path id="node_outline5" fill="none" stroke="none" d="M756.5,124.5h35a5,5,0,0,1,5,5v12a5,5,0,0,1,-5,5h-35a5,5,0,0,1,-5,-5v-12a5,5,0,0,1,5,-5z"></path><g id="node_text5" fill="black"><text id="kity_text_113" text-rendering="inherit" font-size="12" dy=".8em" y="129.5" x="761.5">add</text></g></g><g id="minder_node7"><g id="node_expander5" display="none" style="cursor: pointer;"><path id="kity_path_233" fill="white" stroke="gray" d="M751.5,187.5A6,6,0,1,1,739.5,187.5A6,6,0,1,1,751.5,187.5"></path><path id="kity_path_234" fill="none" stroke="gray"></path></g><path id="node_outline6" fill="none" stroke="none" d="M756.5,176.5h38a5,5,0,0,1,5,5v12a5,5,0,0,1,-5,5h-38a5,5,0,0,1,-5,-5v-12a5,5,0,0,1,5,-5z"></path><g id="node_text6" fill="black"><text id="kity_text_115" text-rendering="inherit" font-size="12" dy=".8em" y="181.5" x="761.5">reset</text></g></g><g id="minder_node8"><g id="node_expander8" style="cursor: pointer;"><path id="kity_path_242" fill="white" stroke="gray" d="M751.5,265.5A6,6,0,1,1,739.5,265.5A6,6,0,1,1,751.5,265.5"></path><path id="kity_path_243" fill="none" stroke="gray" d="M741,265.5L750,265.5"></path></g><path id="node_outline9" fill="none" stroke="none" d="M756.5,254.5h55a5,5,0,0,1,5,5v12a5,5,0,0,1,-5,5h-55a5,5,0,0,1,-5,-5v-12a5,5,0,0,1,5,-5z"></path><g id="node_text9" fill="black"><text id="kity_text_121" text-rendering="inherit" font-size="12" dy=".8em" y="259.5" x="761.5">commit</text></g></g><g id="minder_node9"><g id="node_expander6" display="none" style="cursor: pointer;"><path id="kity_path_236" fill="white" stroke="gray" d="M856.5,239.5A6,6,0,1,1,844.5,239.5A6,6,0,1,1,856.5,239.5"></path><path id="kity_path_237" fill="none" stroke="gray"></path></g><path id="node_outline7" fill="none" stroke="none" d="M861.5,228.5h25a5,5,0,0,1,5,5v12a5,5,0,0,1,-5,5h-25a5,5,0,0,1,-5,-5v-12a5,5,0,0,1,5,-5z"></path><g id="node_text7" fill="black"><text id="kity_text_117" text-rendering="inherit" font-size="12" dy=".8em" y="233.5" x="866.5">-a&#xa0;</text></g></g><g id="minder_node10"><g id="node_expander7" display="none" style="cursor: pointer;"><path id="kity_path_239" fill="white" stroke="gray" d="M856.5,291.5A6,6,0,1,1,844.5,291.5A6,6,0,1,1,856.5,291.5"></path><path id="kity_path_240" fill="none" stroke="gray"></path></g><path id="node_outline8" fill="none" stroke="none" d="M861.5,280.5h113a5,5,0,0,1,5,5v12a5,5,0,0,1,-5,5h-113a5,5,0,0,1,-5,-5v-12a5,5,0,0,1,5,-5z"></path><g id="node_text8" fill="black"><text id="kity_text_119" text-rendering="inherit" font-size="12" dy=".8em" y="285.5" x="866.5">--amend --no-edit</text></g></g><g id="minder_node11"><g id="node_expander14" style="cursor: pointer;"><path id="kity_path_260" fill="white" stroke="gray" d="M520.5,405.5A6,6,0,1,1,508.5,405.5A6,6,0,1,1,520.5,405.5"></path><path id="kity_path_261" fill="none" stroke="gray" d="M510,405.5L519,405.5"></path></g><path id="node_outline15" fill="rgb(238, 243, 246)" stroke="rgb(115, 161, 191)" d="M524.5,392.5h130a3,3,0,0,1,3,3v20a3,3,0,0,1,-3,3h-130a3,3,0,0,1,-3,-3v-20a3,3,0,0,1,3,-3z" stroke-width="1"></path><g id="node_text15" fill="black"><text id="kity_text_133" text-rendering="inherit" font-size="14" dy=".8em" y="398.5" x="541.5">Merge Branch</text></g></g><g id="minder_node12"><g id="node_expander10" display="none" style="cursor: pointer;"><path id="kity_path_248" fill="white" stroke="gray" d="M697.5,353.5A6,6,0,1,1,685.5,353.5A6,6,0,1,1,697.5,353.5"></path><path id="kity_path_249" fill="none" stroke="gray"></path></g><path id="node_outline11" fill="none" stroke="none" d="M702.5,342.5h49a5,5,0,0,1,5,5v12a5,5,0,0,1,-5,5h-49a5,5,0,0,1,-5,-5v-12a5,5,0,0,1,5,-5z"></path><g id="node_text11" fill="black"><text id="kity_text_125" text-rendering="inherit" font-size="12" dy=".8em" y="347.5" x="707.5">merge</text></g></g><g id="minder_node13"><g id="node_expander11" display="none" style="cursor: pointer;"><path id="kity_path_251" fill="white" stroke="gray" d="M697.5,405.5A6,6,0,1,1,685.5,405.5A6,6,0,1,1,697.5,405.5"></path><path id="kity_path_252" fill="none" stroke="gray"></path></g><path id="node_outline12" fill="none" stroke="none" d="M702.5,394.5h75a5,5,0,0,1,5,5v12a5,5,0,0,1,-5,5h-75a5,5,0,0,1,-5,-5v-12a5,5,0,0,1,5,-5z"></path><g id="node_text12" fill="black"><text id="kity_text_127" text-rendering="inherit" font-size="12" dy=".8em" y="399.5" x="707.5">cherry-pick</text></g></g><g id="minder_node14"><g id="node_expander13" style="cursor: pointer;"><path id="kity_path_257" fill="white" stroke="gray" d="M697.5,457.5A6,6,0,1,1,685.5,457.5A6,6,0,1,1,697.5,457.5"></path><path id="kity_path_258" fill="none" stroke="gray" d="M687,457.5L696,457.5"></path></g><path id="node_outline14" fill="none" stroke="none" d="M702.5,446.5h50a5,5,0,0,1,5,5v12a5,5,0,0,1,-5,5h-50a5,5,0,0,1,-5,-5v-12a5,5,0,0,1,5,-5z"></path><g id="node_text14" fill="black"><text id="kity_text_131" text-rendering="inherit" font-size="12" dy=".8em" y="451.5" x="707.5">rebase</text></g></g><g id="minder_node15"><g id="node_expander12" display="none" style="cursor: pointer;"><path id="kity_path_254" fill="white" stroke="gray" d="M797.5,457.5A6,6,0,1,1,785.5,457.5A6,6,0,1,1,797.5,457.5"></path><path id="kity_path_255" fill="none" stroke="gray"></path></g><path id="node_outline13" fill="none" stroke="none" d="M802.5,446.5h60a5,5,0,0,1,5,5v12a5,5,0,0,1,-5,5h-60a5,5,0,0,1,-5,-5v-12a5,5,0,0,1,5,-5z"></path><g id="node_text13" fill="black"><text id="kity_text_129" text-rendering="inherit" font-size="12" dy=".8em" y="451.5" x="807.5">rebase -i</text></g></g><g id="minder_node16"><g id="node_expander16" style="cursor: pointer;"><path id="kity_path_266" fill="white" stroke="gray" d="M520.5,521.5A6,6,0,1,1,508.5,521.5A6,6,0,1,1,520.5,521.5"></path><path id="kity_path_267" fill="none" stroke="gray" d="M510,521.5L519,521.5"></path></g><path id="node_outline17" fill="rgb(238, 243, 246)" stroke="rgb(115, 161, 191)" d="M524.5,508.5h80a3,3,0,0,1,3,3v20a3,3,0,0,1,-3,3h-80a3,3,0,0,1,-3,-3v-20a3,3,0,0,1,3,-3z" stroke-width="1"></path><g id="node_text17" fill="black"><text id="kity_text_137" text-rendering="inherit" font-size="14" dy=".8em" y="514.5" x="541.5">debug</text></g></g><g id="minder_node17"><g id="node_expander15" display="none" style="cursor: pointer;"><path id="kity_path_263" fill="white" stroke="gray" d="M647.5,521.5A6,6,0,1,1,635.5,521.5A6,6,0,1,1,647.5,521.5"></path><path id="kity_path_264" fill="none" stroke="gray"></path></g><path id="node_outline16" fill="none" stroke="none" d="M652.5,510.5h45a5,5,0,0,1,5,5v12a5,5,0,0,1,-5,5h-45a5,5,0,0,1,-5,-5v-12a5,5,0,0,1,5,-5z"></path><g id="node_text16" fill="black"><text id="kity_text_135" text-rendering="inherit" font-size="12" dy=".8em" y="515.5" x="657.5">bisect</text></g></g><g id="minder_node18"><g id="node_expander20" style="cursor: pointer;"><path id="kity_path_278" fill="white" stroke="gray" d="M520.5,637.5A6,6,0,1,1,508.5,637.5A6,6,0,1,1,520.5,637.5"></path><path id="kity_path_279" fill="none" stroke="gray" d="M510,637.5L519,637.5"></path></g><path id="node_outline21" fill="rgb(238, 243, 246)" stroke="rgb(115, 161, 191)" d="M524.5,624.5h83a3,3,0,0,1,3,3v20a3,3,0,0,1,-3,3h-83a3,3,0,0,1,-3,-3v-20a3,3,0,0,1,3,-3z" stroke-width="1"></path><g id="node_text21" fill="black"><text id="kity_text_145" text-rendering="inherit" font-size="14" dy=".8em" y="630.5" x="541.5">branch</text></g></g><g id="minder_node19"><g id="node_expander17" display="none" style="cursor: pointer;"><path id="kity_path_269" fill="white" stroke="gray" d="M650.5,585.5A6,6,0,1,1,638.5,585.5A6,6,0,1,1,650.5,585.5"></path><path id="kity_path_270" fill="none" stroke="gray"></path></g><path id="node_outline18" fill="none" stroke="none" d="M655.5,574.5h49a5,5,0,0,1,5,5v12a5,5,0,0,1,-5,5h-49a5,5,0,0,1,-5,-5v-12a5,5,0,0,1,5,-5z"></path><g id="node_text18" fill="black"><text id="kity_text_139" text-rendering="inherit" font-size="12" dy=".8em" y="579.5" x="660.5">create</text></g></g><g id="minder_node20"><g id="node_expander18" display="none" style="cursor: pointer;"><path id="kity_path_272" fill="white" stroke="gray" d="M650.5,637.5A6,6,0,1,1,638.5,637.5A6,6,0,1,1,650.5,637.5"></path><path id="kity_path_273" fill="none" stroke="gray"></path></g><path id="node_outline19" fill="none" stroke="none" d="M655.5,626.5h48a5,5,0,0,1,5,5v12a5,5,0,0,1,-5,5h-48a5,5,0,0,1,-5,-5v-12a5,5,0,0,1,5,-5z"></path><g id="node_text19" fill="black"><text id="kity_text_141" text-rendering="inherit" font-size="12" dy=".8em" y="631.5" x="660.5">delete</text></g></g><g id="minder_node21"><g id="node_expander19" display="none" style="cursor: pointer;"><path id="kity_path_275" fill="white" stroke="gray" d="M650.5,689.5A6,6,0,1,1,638.5,689.5A6,6,0,1,1,650.5,689.5"></path><path id="kity_path_276" fill="none" stroke="gray"></path></g><path id="node_outline20" fill="none" stroke="none" d="M655.5,678.5h44a5,5,0,0,1,5,5v12a5,5,0,0,1,-5,5h-44a5,5,0,0,1,-5,-5v-12a5,5,0,0,1,5,-5z"></path><g id="node_text20" fill="black"><text id="kity_text_143" text-rendering="inherit" font-size="12" dy=".8em" y="683.5" x="660.5">move</text></g></g><g id="minder_node22"><g id="node_expander23" style="cursor: pointer;"><path id="kity_path_287" fill="white" stroke="gray" d="M520.5,777.5A6,6,0,1,1,508.5,777.5A6,6,0,1,1,520.5,777.5"></path><path id="kity_path_288" fill="none" stroke="gray" d="M510,777.5L519,777.5"></path></g><path id="node_outline24" fill="rgb(238, 243, 246)" stroke="rgb(115, 161, 191)" d="M524.5,764.5h55a3,3,0,0,1,3,3v20a3,3,0,0,1,-3,3h-55a3,3,0,0,1,-3,-3v-20a3,3,0,0,1,3,-3z" stroke-width="1"></path><g id="node_text24" fill="black"><text id="kity_text_151" text-rendering="inherit" font-size="14" dy=".8em" y="770.5" x="541.5">log</text></g></g><g id="minder_node23"><g id="node_expander21" display="none" style="cursor: pointer;"><path id="kity_path_281" fill="white" stroke="gray" d="M622.5,751.5A6,6,0,1,1,610.5,751.5A6,6,0,1,1,622.5,751.5"></path><path id="kity_path_282" fill="none" stroke="gray"></path></g><path id="node_outline22" fill="none" stroke="none" d="M627.5,740.5h44a5,5,0,0,1,5,5v12a5,5,0,0,1,-5,5h-44a5,5,0,0,1,-5,-5v-12a5,5,0,0,1,5,-5z"></path><g id="node_text22" fill="black"><text id="kity_text_147" text-rendering="inherit" font-size="12" dy=".8em" y="745.5" x="632.5">reflog</text></g></g><g id="minder_node24"><g id="node_expander22" display="none" style="cursor: pointer;"><path id="kity_path_284" fill="white" stroke="gray" d="M622.5,803.5A6,6,0,1,1,610.5,803.5A6,6,0,1,1,622.5,803.5"></path><path id="kity_path_285" fill="none" stroke="gray"></path></g><path id="node_outline23" fill="none" stroke="none" d="M627.5,792.5h70a5,5,0,0,1,5,5v12a5,5,0,0,1,-5,5h-70a5,5,0,0,1,-5,-5v-12a5,5,0,0,1,5,-5z"></path><g id="node_text23" fill="black"><text id="kity_text_149" text-rendering="inherit" font-size="12" dy=".8em" y="797.5" x="632.5">log format</text></g></g><g id="minder_node25"><g id="node_expander24" display="none" style="cursor: pointer;"><path id="kity_path_290" fill="white" stroke="gray" d="M227.5,194.5A6,6,0,1,1,215.5,194.5A6,6,0,1,1,227.5,194.5"></path><path id="kity_path_291" fill="none" stroke="gray"></path></g><path id="node_outline25" fill="rgb(238, 243, 246)" stroke="rgb(115, 161, 191)" d="M118.5,181.5h93a3,3,0,0,1,3,3v20a3,3,0,0,1,-3,3h-93a3,3,0,0,1,-3,-3v-20a3,3,0,0,1,3,-3z" stroke-width="1"></path><g id="node_text25" fill="black"><text id="kity_text_153" text-rendering="inherit" font-size="14" dy=".8em" y="187.5" x="135.5">worktree</text></g></g><g id="minder_node26"><g id="node_expander28" style="cursor: pointer;"><path id="kity_path_302" fill="white" stroke="gray" d="M227.5,310.5A6,6,0,1,1,215.5,310.5A6,6,0,1,1,227.5,310.5"></path><path id="kity_path_303" fill="none" stroke="gray" d="M217,310.5L226,310.5"></path></g><path id="node_outline29" fill="rgb(238, 243, 246)" stroke="rgb(115, 161, 191)" d="M140.5,297.5h71a3,3,0,0,1,3,3v20a3,3,0,0,1,-3,3h-71a3,3,0,0,1,-3,-3v-20a3,3,0,0,1,3,-3z" stroke-width="1"></path><g id="node_text29" fill="black"><text id="kity_text_161" text-rendering="inherit" font-size="14" dy=".8em" y="303.5" x="157.5">origin</text></g></g><g id="minder_node27"><g id="node_expander25" display="none" style="cursor: pointer;"><path id="kity_path_293" fill="white" stroke="gray" d="M109.5,258.5A6,6,0,1,1,97.5,258.5A6,6,0,1,1,109.5,258.5"></path><path id="kity_path_294" fill="none" stroke="gray"></path></g><path id="node_outline26" fill="none" stroke="none" d="M51.5,247.5h41a5,5,0,0,1,5,5v12a5,5,0,0,1,-5,5h-41a5,5,0,0,1,-5,-5v-12a5,5,0,0,1,5,-5z"></path><g id="node_text26" fill="black"><text id="kity_text_155" text-rendering="inherit" font-size="12" dy=".8em" y="252.5" x="56.5">fetch</text></g></g><g id="minder_node28"><g id="node_expander26" display="none" style="cursor: pointer;"><path id="kity_path_296" fill="white" stroke="gray" d="M109.5,310.5A6,6,0,1,1,97.5,310.5A6,6,0,1,1,109.5,310.5"></path><path id="kity_path_297" fill="none" stroke="gray"></path></g><path id="node_outline27" fill="none" stroke="none" d="M62.5,299.5h30a5,5,0,0,1,5,5v12a5,5,0,0,1,-5,5h-30a5,5,0,0,1,-5,-5v-12a5,5,0,0,1,5,-5z"></path><g id="node_text27" fill="black"><text id="kity_text_157" text-rendering="inherit" font-size="12" dy=".8em" y="304.5" x="67.5">pull</text></g></g><g id="minder_node29"><g id="node_expander27" display="none" style="cursor: pointer;"><path id="kity_path_299" fill="white" stroke="gray" d="M109.5,362.5A6,6,0,1,1,97.5,362.5A6,6,0,1,1,109.5,362.5"></path><path id="kity_path_300" fill="none" stroke="gray"></path></g><path id="node_outline28" fill="none" stroke="none" d="M55.5,351.5h37a5,5,0,0,1,5,5v12a5,5,0,0,1,-5,5h-37a5,5,0,0,1,-5,-5v-12a5,5,0,0,1,5,-5z"></path><g id="node_text28" fill="black"><text id="kity_text_159" text-rendering="inherit" font-size="12" dy=".8em" y="356.5" x="60.5">push</text></g></g><g id="minder_node30"><g id="node_expander32" style="cursor: pointer;"><path id="kity_path_314" fill="white" stroke="gray" d="M227.5,476.5A6,6,0,1,1,215.5,476.5A6,6,0,1,1,227.5,476.5"></path><path id="kity_path_315" fill="none" stroke="gray" d="M217,476.5L226,476.5"></path></g><path id="node_outline33" fill="rgb(238, 243, 246)" stroke="rgb(115, 161, 191)" d="M143.5,463.5h68a3,3,0,0,1,3,3v20a3,3,0,0,1,-3,3h-68a3,3,0,0,1,-3,-3v-20a3,3,0,0,1,3,-3z" stroke-width="1"></path><g id="node_text33" fill="black"><text id="kity_text_169" text-rendering="inherit" font-size="14" dy=".8em" y="469.5" x="160.5">stash</text></g></g><g id="minder_node31"><g id="node_expander29" display="none" style="cursor: pointer;"><path id="kity_path_305" fill="white" stroke="gray" d="M112.5,424.5A6,6,0,1,1,100.5,424.5A6,6,0,1,1,112.5,424.5"></path><path id="kity_path_306" fill="none" stroke="gray"></path></g><path id="node_outline30" fill="none" stroke="none" d="M71.5,413.5h24a5,5,0,0,1,5,5v12a5,5,0,0,1,-5,5h-24a5,5,0,0,1,-5,-5v-12a5,5,0,0,1,5,-5z"></path><g id="node_text30" fill="black"><text id="kity_text_163" text-rendering="inherit" font-size="12" dy=".8em" y="418.5" x="76.5">list</text></g></g><g id="minder_node32"><g id="node_expander30" display="none" style="cursor: pointer;"><path id="kity_path_308" fill="white" stroke="gray" d="M112.5,476.5A6,6,0,1,1,100.5,476.5A6,6,0,1,1,112.5,476.5"></path><path id="kity_path_309" fill="none" stroke="gray"></path></g><path id="node_outline31" fill="none" stroke="none" d="M55.5,465.5h40a5,5,0,0,1,5,5v12a5,5,0,0,1,-5,5h-40a5,5,0,0,1,-5,-5v-12a5,5,0,0,1,5,-5z"></path><g id="node_text31" fill="black"><text id="kity_text_165" text-rendering="inherit" font-size="12" dy=".8em" y="470.5" x="60.5">show</text></g></g><g id="minder_node33"><g id="node_expander31" display="none" style="cursor: pointer;"><path id="kity_path_311" fill="white" stroke="gray" d="M112.5,528.5A6,6,0,1,1,100.5,528.5A6,6,0,1,1,112.5,528.5"></path><path id="kity_path_312" fill="none" stroke="gray"></path></g><path id="node_outline32" fill="none" stroke="none" d="M57.5,517.5h38a5,5,0,0,1,5,5v12a5,5,0,0,1,-5,5h-38a5,5,0,0,1,-5,-5v-12a5,5,0,0,1,5,-5z"></path><g id="node_text32" fill="black"><text id="kity_text_167" text-rendering="inherit" font-size="12" dy=".8em" y="522.5" x="62.5">drop</text></g></g><g id="minder_node34"><g id="node_expander35" style="cursor: pointer;"><path id="kity_path_323" fill="white" stroke="gray" d="M227.5,616.5A6,6,0,1,1,215.5,616.5A6,6,0,1,1,227.5,616.5"></path><path id="kity_path_324" fill="none" stroke="gray" d="M217,616.5L226,616.5"></path></g><path id="node_outline36" fill="rgb(238, 243, 246)" stroke="rgb(115, 161, 191)" d="M125.5,603.5h86a3,3,0,0,1,3,3v20a3,3,0,0,1,-3,3h-86a3,3,0,0,1,-3,-3v-20a3,3,0,0,1,3,-3z" stroke-width="1"></path><g id="node_text36" fill="black"><text id="kity_text_175" text-rendering="inherit" font-size="14" dy=".8em" y="609.5" x="142.5">gitigore</text></g></g><g id="minder_node35"><g id="node_expander33" display="none" style="cursor: pointer;"><path id="kity_path_317" fill="white" stroke="gray" d="M94.5,590.5A6,6,0,1,1,82.5,590.5A6,6,0,1,1,94.5,590.5"></path><path id="kity_path_318" fill="none" stroke="gray"></path></g><path id="node_outline34" fill="none" stroke="none" d="M30.5,579.5h47a5,5,0,0,1,5,5v12a5,5,0,0,1,-5,5h-47a5,5,0,0,1,-5,-5v-12a5,5,0,0,1,5,-5z"></path><g id="node_text34" fill="black"><text id="kity_text_171" text-rendering="inherit" font-size="12" dy=".8em" y="584.5" x="35.5">global</text></g></g><g id="minder_node36"><g id="node_expander34" display="none" style="cursor: pointer;"><path id="kity_path_320" fill="white" stroke="gray" d="M94.5,642.5A6,6,0,1,1,82.5,642.5A6,6,0,1,1,94.5,642.5"></path><path id="kity_path_321" fill="none" stroke="gray"></path></g><path id="node_outline35" fill="none" stroke="none" d="M25.5,631.5h52a5,5,0,0,1,5,5v12a5,5,0,0,1,-5,5h-52a5,5,0,0,1,-5,-5v-12a5,5,0,0,1,5,-5z"></path><g id="node_text35" fill="black"><text id="kity_text_173" text-rendering="inherit" font-size="12" dy=".8em" y="636.5" x="30.5">project</text></g></g><g id="minder_node37"><g id="node_expander38" style="cursor: pointer;"><path id="kity_path_332" fill="white" stroke="gray" d="M227.5,730.5A6,6,0,1,1,215.5,730.5A6,6,0,1,1,227.5,730.5"></path><path id="kity_path_333" fill="none" stroke="gray" d="M217,730.5L226,730.5"></path></g><path id="node_outline39" fill="rgb(238, 243, 246)" stroke="rgb(115, 161, 191)" d="M147.5,717.5h64a3,3,0,0,1,3,3v20a3,3,0,0,1,-3,3h-64a3,3,0,0,1,-3,-3v-20a3,3,0,0,1,3,-3z" stroke-width="1"></path><g id="node_text39" fill="black"><text id="kity_text_181" text-rendering="inherit" font-size="14" dy=".8em" y="723.5" x="164.5">alias</text></g></g><g id="minder_node38"><g id="node_expander36" display="none" style="cursor: pointer;"><path id="kity_path_326" fill="white" stroke="gray" d="M116.5,704.5A6,6,0,1,1,104.5,704.5A6,6,0,1,1,116.5,704.5"></path><path id="kity_path_327" fill="none" stroke="gray"></path></g><path id="node_outline37" fill="none" stroke="none" d="M64.5,693.5h35a5,5,0,0,1,5,5v12a5,5,0,0,1,-5,5h-35a5,5,0,0,1,-5,-5v-12a5,5,0,0,1,5,-5z"></path><g id="node_text37" fill="black"><text id="kity_text_177" text-rendering="inherit" font-size="12" dy=".8em" y="698.5" x="69.5">add</text></g></g><g id="minder_node39"><g id="node_expander37" display="none" style="cursor: pointer;"><path id="kity_path_329" fill="white" stroke="gray" d="M116.5,756.5A6,6,0,1,1,104.5,756.5A6,6,0,1,1,116.5,756.5"></path><path id="kity_path_330" fill="none" stroke="gray"></path></g><path id="node_outline38" fill="none" stroke="none" d="M26.5,745.5h73a5,5,0,0,1,5,5v12a5,5,0,0,1,-5,5h-73a5,5,0,0,1,-5,-5v-12a5,5,0,0,1,5,-5z"></path><g id="node_text38" fill="black"><text id="kity_text_179" text-rendering="inherit" font-size="12" dy=".8em" y="750.5" x="31.5">zsh git alias</text></g></g></g></g></svg>